<?xml version="1.0" encoding="UTF-8"?>
<!DOCTYPE svg PUBLIC "-//W3C//DTD SVG 1.1//EN" "http://www.w3.org/Graphics/SVG/1.1/DTD/svg11.dtd">
<!-- Creator: CorelDRAW 2020 (64 Bit) -->
<svg xmlns="http://www.w3.org/2000/svg" xml:space="preserve" width="512px" height="512px" version="1.1" style="shape-rendering:geometricPrecision; text-rendering:geometricPrecision; image-rendering:optimizeQuality; fill-rule:evenodd; clip-rule:evenodd"
viewBox="0 0 512 512"
 xmlns:xlink="http://www.w3.org/1999/xlink"
 xmlns:xodm="http://www.corel.com/coreldraw/odm/2003">
 <defs>
  <style type="text/css">
   <![CDATA[
    .fil0 {fill:#0C0F14}
   ]]>
  </style>
 </defs>
 <g id="Camada_x0020_1">
  <metadata id="CorelCorpID_0Corel-Layer"/>
  <g id="_2477161610048">
   <path class="fil0" d="M260.45 219.69c-84.88,6.69 -138.84,62.04 -144.8,147.98 -3.49,50.32 21.43,72 60.29,84.65 39.54,12.87 88.46,14.4 131.43,8.87 45.36,-5.84 76.57,-19.04 104.33,-41.66 21.45,-17.48 56.51,-51.83 37.52,-98.49 -6.96,-17.08 -21.14,-31.96 -31.25,-41.75 -14.41,-13.94 -21.21,-22 -39.84,-33.14 -30.95,-18.51 -74.29,-29.88 -117.68,-26.46z"/>
   <path class="fil0" d="M313.96 48.46c-21.74,2.75 -34.25,10.63 -42.8,24.51 -8.88,14.38 -13.72,32.96 -12.42,53.62 2.32,36.82 24.41,75.65 64.33,69.24 36.41,-5.85 52.11,-45.81 54.69,-79 3.41,-43.85 -18.85,-74.03 -63.8,-68.37z"/>
   <path class="fil0" d="M165.57 68.85c-16.52,4.56 -23.9,18.16 -26.08,37.33 -4.08,36.03 7.13,71.06 35.61,91 12.45,8.71 32.08,15.96 50.63,10.34 35.61,-10.8 29.78,-58.24 14.2,-88.2 -13.1,-25.19 -44.77,-58.64 -74.36,-50.47z"/>
   <path class="fil0" d="M25.23 204.22l0 11.45c4.13,9.06 2.11,24.36 21.49,37.86 25.15,17.53 75.94,15.65 93.9,0.89 26.18,-21.51 3.12,-100.6 -51.74,-105.03 -25.15,-2.02 -46.54,11.75 -56.65,31.65 -4.29,8.45 -4.21,16.82 -7,23.18z"/>
   <path class="fil0" d="M421.1 112.54c-16.73,2.23 -26.39,15.08 -32.7,26.7 -7.31,13.46 -13.45,26.87 -15.14,44.84 -2.23,23.86 2.77,32.2 17.39,41.53 26.19,16.72 66.68,18.64 85.43,-10.71 8.08,-12.65 13.07,-31.19 9.55,-49.37 -5.92,-30.59 -37.35,-56.61 -64.53,-52.99z"/>
  </g>
 </g>
</svg>
