<?xml version="1.0" encoding="UTF-8"?>
<!DOCTYPE svg PUBLIC "-//W3C//DTD SVG 1.1//EN" "http://www.w3.org/Graphics/SVG/1.1/DTD/svg11.dtd">
<!-- Creator: CorelDRAW 2020 (64 Bit) -->
<svg xmlns="http://www.w3.org/2000/svg" xml:space="preserve" width="512px" height="512px" version="1.1" style="shape-rendering:geometricPrecision; text-rendering:geometricPrecision; image-rendering:optimizeQuality; fill-rule:evenodd; clip-rule:evenodd"
viewBox="0 0 512 512"
 xmlns:xlink="http://www.w3.org/1999/xlink"
 xmlns:xodm="http://www.corel.com/coreldraw/odm/2003">
 <defs>
  <style type="text/css">
   <![CDATA[
    .fil1 {fill:black}
    .fil12 {fill:#0C1014}
    .fil16 {fill:#88B53F}
    .fil9 {fill:#88B53F}
    .fil8 {fill:#AB8FDC}
    .fil4 {fill:#AE531E}
    .fil0 {fill:#B6DA7A}
    .fil7 {fill:#B6DA7A}
    .fil17 {fill:#C84094}
    .fil18 {fill:#CCCCCC}
    .fil6 {fill:#CD763F}
    .fil2 {fill:#D5B2F6}
    .fil11 {fill:#D8B4A3}
    .fil15 {fill:#E6E6E6}
    .fil5 {fill:#F1D3D3}
    .fil14 {fill:#FDD2AB}
    .fil3 {fill:#FE9330}
    .fil13 {fill:#FF48A0}
    .fil10 {fill:white}
   ]]>
  </style>
   <clipPath id="id0">
    <rect x="697113.28" y="-696601.28" width="0" height="0"/>
   </clipPath>
   <clipPath id="id1">
    <rect x="-899744" y="900256" width="0" height="0"/>
   </clipPath>
 </defs>
 <g id="Camada_x0020_1">
  <metadata id="CorelCorpID_0Corel-Layer"/>
  <g style="clip-path:url(#id0)">
  </g>
  <g style="clip-path:url(#id1)">
  </g>
  <g id="_2080413466576">
   <path class="fil0" d="M54.36 377.51c4.93,-3.9 16.37,-23.21 19.6,-30.34 -6.21,-7.8 -14.67,-12.2 -19.49,-21.41l-11.27 5.08c2.81,-5.87 3.15,-5.51 7.99,-8.07 -6.56,-17.44 -5.19,-19.72 -11.51,-22.05l-4.59 -1.78c-0.42,-0.17 -1.09,-0.37 -1.57,-0.68l8.86 -2.6 -0.61 -20.5 -9.01 -2.85 10.25 -2.81c2.8,-17.55 8.24,-28.85 16.47,-41.44 7.49,-11.48 7.69,-31.16 12.01,-45.6 3.66,-12.22 9.41,-34.44 25.43,-30.91 12.83,2.83 19.26,23.11 25.88,33.92 58.54,-1.9 34.36,1.42 72,12.19 26.97,-34.85 13.67,-33.52 23.27,-55.84 13.19,-30.64 36.6,-17.96 52.07,-28.95 44.48,-31.61 89.47,-12.46 96.96,-13.23 13.88,-1.41 19.83,-7.32 36.3,-0.59 19.66,8.03 20.93,29.51 37.31,41.76 15.05,11.26 31.12,20.03 38.55,42.47 8.09,24.4 0.47,47.8 -12.68,61.28 -10.91,11.19 -10.99,4.98 -17.79,21.81 -5.27,13.05 -12.3,17.91 -15.94,24.63 40.38,24.56 29.37,25.61 46.04,45.89 29.15,-92.93 23.58,-160.51 -35.3,-240.31 -45.48,-61.66 -133.33,-98.71 -217.08,-88.41 -153.5,18.87 -246.58,173.59 -197.33,317.41 7.54,22.03 15.98,34.08 25.18,51.93z"/>
   <path class="fil1" d="M171.33 475.35l-1.06 7.49c-6.23,0.11 -6.62,-1.26 -8.36,-7.26l-0.51 -3.15c-5,4.99 -2.33,6.66 -5.59,0.52 -4.02,-7.53 -4.72,-28.15 3.19,-35.95 1.09,-3.37 -0.36,-1.57 2.21,-4.6 7.58,-8.96 26.9,-6.25 31.8,6.16 1.54,1.89 -0.12,-0.65 2.47,3.36 4.31,6.67 6.26,11.98 5.82,18.96 1.7,1.98 0.89,0 2.24,3.52 0.33,0.88 0.78,3.41 0.96,4.48 0.45,2.56 0.63,5.18 0.88,7.85l-16.17 -3.64c0.39,-4.16 2.73,-12.58 -2.27,-12.58 -0.1,5.96 -2.86,10.16 -6.47,14.99 -5.27,7.07 -3.53,3.43 -7.48,-2.12l-1.66 1.97zm-75.91 -61.78c6.34,-9.02 35.36,-11.91 36.37,32.24l-2.43 9.37c-2.05,7.78 -1.73,7.81 -8.91,11.98l-0.09 -7.24 -0.78 -1.14c-1.96,4.21 -4.01,12.13 -8.61,10.1 -4.96,-2.19 -2.14,-8.28 -1.55,-14.91 -2.08,1.95 -1.76,1.46 -3.67,3.77l-1.25 2.43c-7.21,-9.96 -5.27,-22.66 -4.54,-35.6l-6.03 -8.03c-0.22,-0.14 -0.61,-0.41 -0.61,-0.49 -0.01,-0.06 -0.04,-0.57 -0.04,-0.64l2.14 -1.84zm26.91 -25.65c1.13,-9.08 0.76,-5.46 5.06,-12.06 10.23,-1.47 19.65,1.94 16.82,12.72l-1.24 5.93c-10.25,4.56 -16.07,5.74 -20.64,-6.59zm314.44 16.35c5.21,3.79 3.72,20.6 2.73,27.45 -1.5,10.34 -4.1,16.01 -10.98,19.79l-3.72 -9.49 -2.49 -2.44 -0.57 6.2c0.91,9.19 3.78,12.26 -10.11,10.35l-2.79 -8.59 -2.9 -2.93c-0.22,0.36 -0.51,0.89 -0.76,1.27 -0.24,0.37 -0.57,0.88 -0.8,1.22 -2.03,2.96 -0.17,1 -2.79,3.26 -2.24,-5.16 -4.22,-8.49 -5.55,-15.55 -4.25,-13.29 0.24,-33.52 5.92,-44.23 6.42,-12.11 18.08,-18.89 36.3,-15.75l11.53 5.36c-2.17,4.77 -5.07,7.5 -8.38,11.78l-3.96 -3c-2.52,-2.01 -0.56,-0.68 -2.82,-2.44l2.14 17.74zm-372.25 -26.73c3.23,-6.95 8.01,-12.66 11.61,-19.25 12.38,6.77 15.25,13.53 38.88,20.37 1.48,7.76 -1.22,11.05 3.44,17.88 8.83,12.92 32.76,11.86 33.69,-12.83 27.09,-4.1 25.98,-5.26 46.21,-14.54 1.86,6.27 3.7,14.69 5.18,21.55 4.96,23.07 19.04,21.3 23.71,55.71 2.84,10.37 2.07,22.07 0.43,32.63 -5.9,1.62 -9.86,0.33 -14.98,-1.87l-7.64 -31.05c-5.11,-9.87 -10.23,-20.04 -20.63,-23.78 -6.32,-2.28 -12.54,-2.3 -18.87,-0.02 -6.03,2.17 -7.23,5.02 -12.12,9.02 -2.89,6.94 -5.54,14.13 -7.36,23.76l-7.9 -4.52c-0.51,-15.95 -1.57,-18.09 -5.08,-31.82 -5.1,-8.08 -7.71,-11.52 -15.7,-16.18 -15.57,-1.17 -20.52,2.99 -30.6,7.68 -12.61,-10.46 -15.71,-19.01 -24.88,-28.9l2.61 -3.84zm76.96 -8.01c24.57,-3.58 12.83,3.2 52.7,-7.15 -13.61,8.58 -23.42,14.05 -44.38,13.66 -2.88,-2.86 -3.98,-4.23 -8.32,-6.51zm225.41 -17.4c-2.46,9.84 -6.13,12.06 -17.19,10.7 -3.77,-3.34 -5.64,-4.72 -6.93,-10.26 -0.96,-10.97 6.83,-14.37 18.3,-12.59 4.79,6.38 4.52,2.39 5.82,12.15zm-236.74 15.32c-12.83,7.1 -13.66,5.77 -28.24,-1.13 -5.23,-2.47 -8.34,-4.21 -12.68,-7.18 -3.64,-2.49 -6.29,-5.99 -8.67,-7.49 1.28,0.19 24.82,10.94 49.59,15.8zm298.51 -61.74l4.41 -6.39c12.81,6.73 23.88,15.77 30.69,28.12 0.32,0.3 0.51,0.23 2.27,2.47l5.13 9.16c1.77,7.63 -12.24,29.6 -17.15,34.73 -14.28,-4.25 -19.63,-9.25 -38.33,-5.03 -28.27,14.44 -28.02,35.74 -26.67,72 -6,4.96 -24.08,16.02 -32.2,18.18 -16.34,-18.85 -23.83,-25.21 -60.55,-23.47 -11.71,1.75 -25.95,4.67 -34.34,10.28l35.78 -2.74c26.31,-1.09 48.35,2.92 54.1,25.71l0.84 9.85c-1.72,8.19 -1.05,8.13 -6.63,12.4l-2.24 -4.6 -2.81 -7.29 -1.42 10.54 -0.62 6.66 -9.07 1.22 -2.17 -7.29c-0.9,-4.59 -2.73,-7.71 -4.14,-10.72l-0.53 9.54 -0.5 7.51c-12.24,-2.74 -17.74,-9.19 -21.26,-19.77l-6.81 -12.5 -0.61 14.96c-26.42,-1.84 -50.7,-11.72 -55.28,-33.06 -6.31,-13.15 -5.03,-38.6 -1.09,-53.31 4.53,-22.72 20.01,-55.13 33.09,-63.89l5.24 3.64c20.49,8.74 33.67,13.21 59.52,13.17 0.15,7.49 1.73,12.46 3.57,17.95 13.35,8.7 28.75,11.18 34.73,-9.46l-2.52 -14.27c11.23,-2.37 24.74,-8.46 33.17,-13.79 12.18,-7.7 15.93,-12.66 24.4,-20.51zm-199.62 28.99c2.93,-4.26 4.91,-8.46 7.92,-13.76l8.26 2.99c-2.98,-5.74 -1.92,-3.29 -6.79,-7.28l2.58 -11.53c8.7,5.14 15.55,11.09 26.1,14.55 -3.1,7.04 -3.39,4.9 -8.13,10.67 -7.98,9.72 -14.4,20.96 -19.54,32.7 -9.34,21.34 -9.11,32.38 -12.59,55.92 -4.25,-6.01 -14.31,-20.7 -15.87,-26.8 -2.32,-9.08 -6.17,-25.09 -6.96,-34.2 16.51,-14.02 16.77,-13.4 21.62,-9.4 -1.54,-9.3 -1.39,-6.91 3.4,-13.86zm47.91 -9.93c8.68,0.02 25.99,4.93 38.38,5.67 41.46,2.45 75.87,-8.14 107.73,-31.06 -9.98,15.03 -37.67,36.73 -64.67,33.26 -14.66,-1.88 -21.37,15.76 -65.69,-0.53 -5.48,-2.02 -11.7,-6.48 -15.75,-7.34zm-186.85 -116.33c5.75,-8.39 25.31,-14.06 38.28,-15.94 34.66,-5.03 60.36,7.11 82.31,28.94 6.8,6.75 19.13,22.53 19.29,34.28 4.13,4.02 4.42,7.88 5.35,14.83 0.92,6.93 1.05,12.07 0.81,19.6l-10.63 3.3c2.37,0.91 2.76,0.66 5.34,1.51l4.84 1.85 -3.48 16.3 -13.15 0.26 9.94 4.99c-2.09,7.3 -6.08,12.13 -9.67,16.64l-13.42 -6.84c1.71,3.37 2.85,4.87 3.83,6.91 3.37,1.95 2.82,1.38 5.84,3.89 -13.9,18.86 -51.42,26.1 -82.51,21.64 -36.8,-5.28 -53.1,-17.23 -70.99,-35.4 0.25,-5.69 2.56,-4.03 3.06,-6.42 0.18,-0.88 0.9,-0.83 1.32,-1.04l-10.11 -0.73 -5.22 -14.85c1.47,-2.82 -3.19,-2.04 3.44,-2.36l6.84 -1.13 -11.84 -4.16 -0.46 -18.19 12.52 1.57 -11.69 -5.62c3.4,-26.71 23.01,-57.08 40.16,-63.83zm123.21 3.6c2.45,-3.58 2.74,-3.01 5.75,-6.13 5.93,-6.16 -0.07,-3.48 9.53,-5.35l-3.49 26.01 -11.79 -14.53zm2.83 -13.46l-8.58 9.28 -4.54 -2.26c2.65,-6.42 5.14,-8.41 9.67,-11.73 38.01,-34.05 26.89,25.55 21.83,47.15 -8.63,-10 4,-27.33 -3.69,-44.95 -10.8,-1.63 -7.1,1.11 -14.69,2.51zm-124.92 -12.8l1.42 -7.53c7.22,1.08 2.48,-0.29 7.11,6.17l2.51 7.52 -15.73 8.49c0.36,-3.3 0.42,-5.66 1.28,-8.7 2.05,-7.35 1.19,-3.79 3.41,-5.95zm157.12 -38.23c6.18,-14.22 22.25,-28.4 36.96,-35.7 16.89,-8.4 38.57,-12.03 59.87,-9.44 28.74,3.89 54.04,23.94 62.63,43.18l6.89 11.86c6.15,5.52 17.5,19.76 21.77,29.46 6.37,7.16 17.83,48.41 9.61,58.6l0.4 2.66c-8.37,57.52 -88.04,83.5 -150.1,73.03 -33.09,-5.59 -36.07,-14.27 -51.78,-22.14l4.26 -2.08 -5.57 -5.35 0.03 -9.16c-0.66,-15.33 -4.92,-21.01 -1.96,-36.47 2.2,-11.51 4.13,-23.55 4.84,-35.63 0.61,-10.38 0.98,-20.73 -4.27,-29.23 -8.04,-13.01 2.93,-29.82 6.42,-33.59zm-167.34 46.62c-1.35,12.81 -0.56,11.75 -8.38,17.58 0.15,-3.31 0.27,-5.85 1.03,-8.96l3.01 -6.7c-0.74,-13.68 7.34,-31.42 15.53,-37.65 10.1,1.38 16.49,12.39 19.89,22.89l2.46 7.28c-9.48,0.85 -6.96,0.51 -10.09,-7.14 -2.92,-5.87 -4.04,-8.76 -12.26,-9.66 -8.55,6.17 -7.61,13 -11.19,22.36zm169.83 -65.15c-3.96,7.44 -9.23,13.28 -13.17,21.75 -3.88,8.34 -5.3,14.84 -7.76,24.29l-9.44 3.77 -5.41 2.85c8.43,-28.37 6.25,-54.84 40.25,-56.98 -2.82,3.98 -0.48,1.7 -4.47,4.32zm141.46 -25.45c16.29,2.68 21.53,12.3 29.02,24.27 11.42,18.25 9.46,12.88 25.36,25.07 15.75,12.07 37.76,36.56 25.72,67.68 -4.59,15.25 -13.2,17.97 -17.22,24.62 -2.24,-46.53 -3.06,-53.47 -26.54,-83.24 -4.95,-6.28 -7.77,-9.03 -12.02,-16.7 -15.27,-27.5 -23.12,-27.12 -39.85,-41.08l15.53 -0.62zm-337.93 273.94c0.24,9.28 8.83,16.76 16.72,26.76 6.8,8.63 14.1,14.27 22.11,23.9 -3.42,35.05 17.05,67.66 40.77,34.56 2.65,-3.71 -1.8,2.22 1.54,-2.1l1.7 -1.98c18.32,8.46 5.31,13.87 18.97,26.14 13.13,11.79 23.74,0.69 31.43,-5.08 11.53,2.61 36.67,12.41 46.25,6.13l2.91 -24.53c7.36,7.53 8.37,9.35 18.29,14.67 9.25,4.96 16.73,5.7 25.2,9.36 20.8,0.27 13.95,0.23 23.75,10.03 17.91,17.91 60.6,14.46 55.14,-28.89 9.25,-4.68 25.22,-12.27 31.32,-18.42 6.96,5.12 6.03,10.31 15.25,14.02 17.85,7.18 42.8,-5.74 41.47,-42.96 -1.28,-35.46 -9.48,-3.56 13.66,-41.73 5.15,-8.5 19.79,-28.78 18.05,-40.5 -16.67,-20.28 -5.66,-21.33 -46.04,-45.89 3.64,-6.72 10.67,-11.58 15.94,-24.63 6.8,-16.83 6.88,-10.62 17.79,-21.81 13.15,-13.48 20.77,-36.88 12.68,-61.28 -7.43,-22.44 -23.5,-31.21 -38.55,-42.47 -16.38,-12.25 -17.65,-33.73 -37.31,-41.76 -16.47,-6.73 -22.42,-0.82 -36.3,0.59 -7.49,0.77 -52.48,-18.38 -96.96,13.23 -15.47,10.99 -38.88,-1.69 -52.07,28.95 -9.6,22.32 3.7,20.99 -23.27,55.84 -37.64,-10.77 -13.46,-14.09 -72,-12.19 -6.62,-10.81 -13.05,-31.09 -25.88,-33.92 -16.02,-3.53 -21.77,18.69 -25.43,30.91 -4.32,14.44 -4.52,34.12 -12.01,45.6 -8.23,12.59 -13.67,23.89 -16.47,41.44l-10.25 2.81 9.01 2.85 0.61 20.5 -8.86 2.6c0.48,0.31 1.15,0.51 1.57,0.68l4.59 1.78c6.32,2.33 4.95,4.61 11.51,22.05 -4.84,2.56 -5.18,2.2 -7.99,8.07l11.27 -5.08c4.82,9.21 13.28,13.61 19.49,21.41 -3.23,7.13 -14.67,26.44 -19.6,30.34z"/>
   <path class="fil2" d="M133.18 279.87l18.87 1.29c1.94,9.27 -2.89,2.68 -5.03,10.84 -1.35,5.13 3.96,10.15 6.7,11.74 12.81,7.39 19.09,-7 24.88,-10.52 1.71,15.09 -5.29,16.16 -17.1,20.61 -7.43,44.97 -41.97,44.99 -41.07,-3.99 -11.15,-4.93 -16.08,-6.87 -13.83,-22.39 6.33,4.16 3.57,5.38 7.87,10.45 7.33,8.63 21.8,4.13 23.73,-3.79 1.53,-6.24 0.62,-1.76 -4.4,-12.69 -0.18,-0.38 -0.39,-1.05 -0.62,-1.55zm-23.56 -36.19c18.49,-6.55 15.84,28.89 1.59,32.76 -17.82,4.84 -16.02,-27.65 -1.59,-32.76zm55.69 28.56c-0.02,-9.54 17.61,-16.8 27.86,-11.48l-15.92 6.78c7.79,3.74 9.58,2.91 12.15,9.46 -8.74,-2.73 -18.31,-2.81 -24.09,-4.76zm-75.21 -63.8c-17.15,6.75 -36.76,37.12 -40.16,63.83l11.69 5.62 -12.52 -1.57 0.46 18.19 11.84 4.16 -6.84 1.13c3.74,13.3 7.78,10.79 13.28,17.25l2.91 4.84c0.22,0.34 0.47,0.8 0.7,1.13 0.23,0.31 0.54,0.73 0.77,1.02 1.55,1.9 5.69,4.91 7.91,6.4 52.46,35 126.35,18.51 129.6,4.63 -0.98,-2.04 -2.12,-3.54 -3.83,-6.91l13.42 6.84c3.59,-4.51 7.58,-9.34 9.67,-16.64l-9.94 -4.99 13.15 -0.26 3.48 -16.3 -4.84 -1.85c-2.58,-0.85 -2.97,-0.6 -5.34,-1.51l10.63 -3.3c0.24,-7.53 0.11,-12.67 -0.81,-19.6 -0.93,-6.95 -1.22,-10.81 -5.35,-14.83l0.06 2.49c-9.27,-31.57 -44.55,-57.01 -78.49,-60.93 -21.09,-2.43 -19.52,0.77 -24.22,3.14 -10.32,5.21 -9.98,-1.57 -21.27,1.74 -11.9,3.49 -13.29,8.97 -15.96,6.28z"/>
   <path class="fil3" d="M297.98 187.17c14.62,16.82 4.38,41.64 -10.82,35.73 -9.71,-3.78 -12.8,-36.4 10.82,-35.73zm-49.64 -39.62c-3.49,3.77 -14.46,20.58 -6.42,33.59 5.25,8.5 4.88,18.85 4.27,29.23 -0.71,12.08 -2.64,24.12 -4.84,35.63 -2.96,15.46 1.3,21.14 1.96,36.47 11.12,6.66 17.38,13.59 34.69,19.3 14.88,4.91 30.03,6.66 46.41,7.22l0.87 -5.93c-0.64,-7.25 -10.84,-29.04 -14.67,-35.53 -8.69,-3.15 -14.58,-0.21 -23.23,-7.54 -6.04,-5.11 -10.25,-11.21 -9.77,-22.88 8.45,7.43 10.68,19.31 25.54,21.64 15.14,2.38 25.04,-8.09 28.54,-19.59 -4.1,-8.09 -11.94,-10.16 -12.88,-18 7.16,-3.79 23.88,-5.77 31.78,-2.84 -0.88,8.03 -7.08,10.07 -9.63,19.04 4.09,8.27 12.38,15.65 24.88,15.22 11.8,-0.4 21.43,-10.47 22.53,-19.8 -2.6,-2.87 -16.43,-5.17 -32.12,-16.48 -8.19,-5.91 -16.4,-16.26 -21.9,-28.47 -17.24,-38.26 1.83,-61.21 9.32,-78.94l-2.55 -0.55c-20.42,-0.91 -40.56,2.26 -56.71,9.9 -7.65,3.62 -14.33,7.88 -19.46,12.88l-16.61 16.43z"/>
   <path class="fil3" d="M237.46 392.87c-3.94,14.71 -5.22,40.16 1.09,53.31 12.13,11.75 18.95,19.29 39.06,22.04 15.14,2.07 14.31,-1.84 14.32,-1.84 0.34,-0.2 1.02,-0.32 1.26,-1.01 0.25,-0.71 0.81,-0.76 1.25,-1.09l6.81 12.5c8.23,5.07 10.77,9.9 21.76,12.26l0.53 -9.54c1.41,3.01 3.24,6.13 4.14,10.72l11.86 -0.59 1.42 -10.54 2.81 7.29 8.87 -7.8 -0.84 -9.85c-0.92,3.13 0.32,1.06 -1.71,2.89 -6.08,-22.17 -28.2,-22.46 -52.39,-28.6l-35.78 2.74c8.39,-5.61 22.63,-8.53 34.34,-10.28 3.15,-34.31 21.48,-61.49 42.62,-71.74 -1.84,-5.49 -3.42,-10.46 -3.57,-17.95 -25.85,0.04 -39.03,-4.43 -59.52,-13.17 -1.43,3.23 -0.06,1.16 -2.7,4.65 -5.35,7.1 -7.79,5.5 -19.07,24.09 -5.21,8.6 -12.04,23.25 -14.48,35.16 -2.69,-2.48 -2.65,3.47 -2.08,-3.65z"/>
   <path class="fil4" d="M377.43 212.56c-23.52,4.77 -25.82,-26.07 -16.93,-32.92 13.54,-10.43 27.89,13.9 16.93,32.92zm10.94 20.22c5.39,-4.98 0.16,-4.32 5.59,-7.64l0.66 10.1c5.81,-4.46 19.13,-2.5 27.67,-4.61 9.33,-2.3 15.53,-5.05 23.23,-10.33 1.24,9.36 0.69,16.43 0.55,25.21 8.22,-10.19 -3.24,-51.44 -9.61,-58.6 -3.14,-2.33 -20.16,-20.68 -21.77,-29.46l-6.89 -11.86c-0.43,-0.24 -0.99,-0.59 -1.24,-0.79l-2.24 -1.72c-9.88,-8.89 -9.68,-12.02 -23.9,-21.13 -7.5,-4.81 -9.19,-6.64 -18.21,-6.56 -16.9,0.14 -5.79,-2.68 -18.54,-6.5 -7.49,17.73 -26.56,40.68 -9.32,78.94 5.5,12.21 13.71,22.56 21.9,28.47 15.69,11.31 29.52,13.61 32.12,16.48z"/>
   <path class="fil5" d="M338.88 363.74c-21.14,10.25 -39.47,37.43 -42.62,71.74 36.72,-1.74 44.21,4.62 60.55,23.47 8.12,-2.16 26.2,-13.22 32.2,-18.18 -1.35,-36.26 -1.6,-57.56 26.67,-72 -6.92,-8.39 -27.61,-15.49 -42.07,-14.49 -5.98,20.64 -21.38,18.16 -34.73,9.46z"/>
   <path class="fil2" d="M64.52 377.54c32.89,30.7 40.69,15.93 52.87,25.06 7.99,4.66 10.6,8.1 15.7,16.18 7.51,5.41 8.81,13.35 20.34,12.58 4.89,-4 6.09,-6.85 12.12,-9.02 6.33,-2.28 12.55,-2.26 18.87,0.02 10.4,3.74 15.52,13.91 20.63,23.78 11.78,2.41 11.59,0.93 22.19,0.29 -4.67,-34.41 -18.75,-32.64 -23.71,-55.71 -1.48,-6.86 -3.32,-15.28 -5.18,-21.55 -20.23,9.28 -19.12,10.44 -46.21,14.54 -0.93,24.69 -24.86,25.75 -33.69,12.83 -4.66,-6.83 -1.96,-10.12 -3.44,-17.88 -23.63,-6.84 -26.5,-13.6 -38.88,-20.37 -3.6,6.59 -8.38,12.3 -11.61,19.25z"/>
   <path class="fil3" d="M373.61 354.28c14.46,-1 35.15,6.1 42.07,14.49 18.7,-4.22 24.05,0.78 38.33,5.03 4.91,-5.13 18.92,-27.1 17.15,-34.73l-5.13 -9.16c-1.76,-2.24 -1.95,-2.17 -2.27,-2.47 -9.39,-2.68 -8.71,-10.7 -35.1,-21.73 -8.47,7.85 -12.22,12.81 -24.4,20.51 -8.43,5.33 -21.94,11.42 -33.17,13.79l2.52 14.27z"/>
   <path class="fil3" d="M394.62 235.24c-1.27,7.93 -4.53,12.61 -8.93,16.6 -6.08,5.5 -6.75,3.75 -12.74,7.18 -8.47,4.84 -10.61,27.5 -9.98,36.63l1.37 9.88c35.61,-15.32 57.04,-15.91 80.32,-54.52l1.81 -2.84 -0.4 -2.66c0.14,-8.78 0.69,-15.85 -0.55,-25.21 -7.7,5.28 -13.9,8.03 -23.23,10.33 -8.54,2.11 -21.86,0.15 -27.67,4.61z"/>
   <path class="fil1" d="M336.93 278.37c17.71,-10.68 22.06,31.03 11.55,35.48 -10.08,4.27 -13.68,-5.27 -14.9,-13.5 -1.51,-10.13 -3.75,-17.71 3.35,-21.98zm-11.65 24.69c4.71,4.66 4.16,22.18 22.02,18.98 19.29,-3.47 9.22,-18.74 15.67,-26.39 -0.63,-9.13 1.51,-31.79 9.98,-36.63 5.99,-3.43 6.66,-1.68 12.74,-7.18 4.4,-3.99 7.66,-8.67 8.93,-16.6l-0.66 -10.1c-5.43,3.32 -0.2,2.66 -5.59,7.64 -1.1,9.33 -10.73,19.4 -22.53,19.8 -12.5,0.43 -20.79,-6.95 -24.88,-15.22 2.55,-8.97 8.75,-11.01 9.63,-19.04 -7.9,-2.93 -24.62,-0.95 -31.78,2.84 0.94,7.84 8.78,9.91 12.88,18 -3.5,11.5 -13.4,21.97 -28.54,19.59 -14.86,-2.33 -17.09,-14.21 -25.54,-21.64 -0.48,11.67 3.73,17.77 9.77,22.88 8.65,7.33 14.54,4.39 23.23,7.54 3.83,6.49 14.03,28.28 14.67,35.53z"/>
   <path class="fil6" d="M362.97 295.65c-6.45,7.65 3.62,22.92 -15.67,26.39 -17.86,3.2 -17.31,-14.32 -22.02,-18.98l-0.87 5.93c-16.38,-0.56 -31.53,-2.31 -46.41,-7.22 -17.31,-5.71 -23.57,-12.64 -34.69,-19.3l-0.03 9.16 5.57 5.35 -4.26 2.08c15.71,7.87 18.69,16.55 51.78,22.14 62.06,10.47 141.73,-15.51 150.1,-73.03l-1.81 2.84c-23.28,38.61 -44.71,39.2 -80.32,54.52l-1.37 -9.88z"/>
   <path class="fil7" d="M238.43 316.65c4.87,3.99 3.81,1.54 6.79,7.28l-8.26 -2.99c-3.01,5.3 -4.99,9.5 -7.92,13.76 -4.79,6.95 -4.94,4.56 -3.4,13.86 -4.85,-4 -5.11,-4.62 -21.62,9.4 0.79,9.11 4.64,25.12 6.96,34.2 1.56,6.1 11.62,20.79 15.87,26.8 3.48,-23.54 3.25,-34.58 12.59,-55.92 5.14,-11.74 11.56,-22.98 19.54,-32.7 4.74,-5.77 5.03,-3.63 8.13,-10.67 -10.55,-3.46 -17.4,-9.41 -26.1,-14.55l-2.58 11.53z"/>
   <path class="fil3" d="M396.04 434.81c1.33,7.06 3.31,10.39 5.55,15.55 2.62,-2.26 0.76,-0.3 2.79,-3.26 0.23,-0.34 0.56,-0.85 0.8,-1.22 0.25,-0.38 0.54,-0.91 0.76,-1.27l2.9 2.93 12.9 -1.76 0.57 -6.2 2.49 2.44c15.26,-9.66 8.95,-23.16 11.97,-37.75l-2.14 -17.74c2.26,1.76 0.3,0.43 2.82,2.44l3.96 3c3.31,-4.28 6.21,-7.01 8.38,-11.78l-11.53 -5.36c-0.42,0.21 -0.95,0.51 -1.27,0.61 -0.34,0.1 -0.93,0.42 -1.36,0.52 -6.22,1.51 -10.5,-0.53 -19.1,3.97 -16.04,8.4 -19.1,38.5 -20.49,54.88z"/>
   <path class="fil4" d="M472.39 220.59c0.9,-37.51 -11.99,-52.61 -33.25,-67.31 -15.35,-10.6 -13.99,-9.76 -24.22,-26.26 -10.49,-16.92 -12.78,-14.55 -29.36,-23.1l6.73 -0.35 -15.53 0.62c16.73,13.96 24.58,13.58 39.85,41.08 4.25,7.67 7.07,10.42 12.02,16.7 23.48,29.77 24.3,36.71 26.54,83.24 4.02,-6.65 12.63,-9.37 17.22,-24.62z"/>
   <path class="fil1" d="M139 339.57c-20.65,-7.55 -4.19,-28.94 10.86,-12.21 -1.96,6.41 -4.94,10.09 -10.86,12.21zm-5.82 -59.7c0.23,0.5 0.44,1.17 0.62,1.55 5.02,10.93 5.93,6.45 4.4,12.69 -1.93,7.92 -16.4,12.42 -23.73,3.79 -4.3,-5.07 -1.54,-6.29 -7.87,-10.45 -2.25,15.52 2.68,17.46 13.83,22.39 -0.9,48.98 33.64,48.96 41.07,3.99 11.81,-4.45 18.81,-5.52 17.1,-20.61 -5.79,3.52 -12.07,17.91 -24.88,10.52 -2.74,-1.59 -8.05,-6.61 -6.7,-11.74 2.14,-8.16 6.97,-1.57 5.03,-10.84l-18.87 -1.29z"/>
   <path class="fil8" d="M209.74 335.07c-3.25,13.88 -77.14,30.37 -129.6,-4.63 -2.22,-1.49 -6.36,-4.5 -7.91,-6.4 -0.23,-0.29 -0.54,-0.71 -0.77,-1.02 -0.23,-0.33 -0.48,-0.79 -0.7,-1.13l-2.91 -4.84c-5.5,-6.46 -9.54,-3.95 -13.28,-17.25 -6.63,0.32 -1.97,-0.46 -3.44,2.36l5.22 14.85 10.11 0.73c-0.42,0.21 -1.14,0.16 -1.32,1.04 -0.5,2.39 -2.81,0.73 -3.06,6.42 17.89,18.17 34.19,30.12 70.99,35.4 31.09,4.46 68.61,-2.78 82.51,-21.64 -3.02,-2.51 -2.47,-1.94 -5.84,-3.89z"/>
   <path class="fil2" d="M159 437c-7.91,7.8 -7.21,28.42 -3.19,35.95 3.26,6.14 0.59,4.47 5.59,-0.52l0.51 3.15 9.42 -0.23 1.66 -1.97c3.95,5.55 2.21,9.19 7.48,2.12 3.61,-4.83 6.37,-9.03 6.47,-14.99 -1.01,-10.28 -1.3,-1.97 4.25,-5.33 2.29,9.73 -0.46,10.64 9.01,11.22 0.93,-2.36 1.31,1.42 1.1,-5.52 0.44,-6.98 -1.51,-12.29 -5.82,-18.96 -2.59,-4.01 -0.93,-1.47 -2.47,-3.36l-1.1 -0.25c-13.13,-6.9 -16.5,-8.27 -32.38,-1.48l-0.53 0.17z"/>
   <path class="fil2" d="M93.93 416.54c15.93,5.88 10.38,7.58 11.09,24.31l4.4 13.12c0.34,0.4 0.85,0.5 0.99,1.22 0.17,0.81 1.49,1.88 1.73,2.21 0.18,0.25 0.73,1.33 1.79,2.58l5.65 -1.2 0.78 1.14 9 -4.74 2.43 -9.37c-4.76,-8.08 -4.12,-17.05 -11.35,-26.07 -8.75,-10.92 -24.55,-5.02 -25.02,-6.17l-2.14 1.84c0,0.07 0.03,0.58 0.04,0.64 0,0.08 0.39,0.35 0.61,0.49z"/>
   <path class="fil9" d="M276.95 324.77c4.05,0.86 10.27,5.32 15.75,7.34 44.32,16.29 51.03,-1.35 65.69,0.53 27,3.47 54.69,-18.23 64.67,-33.26 -31.86,22.92 -66.27,33.51 -107.73,31.06 -12.39,-0.74 -29.7,-5.65 -38.38,-5.67z"/>
   <path class="fil10" d="M90.1 208.44c2.67,2.69 4.06,-2.79 15.96,-6.28 11.29,-3.31 10.95,3.47 21.27,-1.74 4.7,-2.37 3.13,-5.57 24.22,-3.14 33.94,3.92 69.22,29.36 78.49,60.93l-0.06 -2.49c-0.16,-11.75 -12.49,-27.53 -19.29,-34.28 -21.95,-21.83 -47.65,-33.97 -82.31,-28.94 -12.97,1.88 -32.53,7.55 -38.28,15.94z"/>
   <path class="fil11" d="M472.39 220.59c12.04,-31.12 -9.97,-55.61 -25.72,-67.68 -15.9,-12.19 -13.94,-6.82 -25.36,-25.07 -7.49,-11.97 -12.73,-21.59 -29.02,-24.27l-6.73 0.35c16.58,8.55 18.87,6.18 29.36,23.1 10.23,16.5 8.87,15.66 24.22,26.26 21.26,14.7 34.15,29.8 33.25,67.31z"/>
   <path class="fil12" d="M364.01 197.46c-4.15,-5.8 -3.32,-3.47 -0.98,-9.66 3.62,0.52 5.26,0.89 5.72,5.01 0.69,6.2 -1.73,4.09 -4.74,4.65zm13.42 15.1c10.96,-19.02 -3.39,-43.35 -16.93,-32.92 -8.89,6.85 -6.59,37.69 16.93,32.92z"/>
   <path class="fil13" d="M336.93 278.37c-7.1,4.27 -4.86,11.85 -3.35,21.98 1.22,8.23 4.82,17.77 14.9,13.5 10.51,-4.45 6.16,-46.16 -11.55,-35.48z"/>
   <path class="fil12" d="M292.54 201.86c0.79,-5.14 1.44,-3.05 4.87,-4.55 3.51,5.3 3.85,3.65 0,9.75 -1.56,-0.43 -5.79,0.77 -4.87,-5.2zm5.44 -14.69c-23.62,-0.67 -20.53,31.95 -10.82,35.73 15.2,5.91 25.44,-18.91 10.82,-35.73z"/>
   <path class="fil8" d="M227.24 446.43c-10.6,0.64 -10.41,2.12 -22.19,-0.29l7.64 31.05c5.12,2.2 9.08,3.49 14.98,1.87 1.64,-10.56 2.41,-22.26 -0.43,-32.63z"/>
   <path class="fil1" d="M115.6 252.95c1.17,1.83 4.95,-0.29 0.34,9.52 -7.87,-2.02 -7.73,-5.11 -0.34,-9.52zm-5.98 -9.27c-14.43,5.11 -16.23,37.6 1.59,32.76 14.25,-3.87 16.9,-39.31 -1.59,-32.76z"/>
   <path class="fil14" d="M248.34 147.55l16.61 -16.43c5.13,-5 11.81,-9.26 19.46,-12.88 16.15,-7.64 36.29,-10.81 56.71,-9.9l5.92 -1.41c-0.03,-0.75 0.96,-1.34 -1.87,-4.52 -21.3,-2.59 -42.98,1.04 -59.87,9.44 -14.71,7.3 -30.78,21.48 -36.96,35.7z"/>
   <path class="fil2" d="M212.69 193.87c1.55,5.45 -2.08,1.87 3.45,4.71 7.59,-1.4 3.89,-4.14 14.69,-2.51 7.69,17.62 -4.94,34.95 3.69,44.95 5.06,-21.6 16.18,-81.2 -21.83,-47.15z"/>
   <path class="fil4" d="M220.46 178.83l9.44 -3.77c2.46,-9.45 3.88,-15.95 7.76,-24.29 3.94,-8.47 9.21,-14.31 13.17,-21.75 -23.31,6.71 -26.78,24.03 -30.37,49.81z"/>
   <path class="fil8" d="M117.39 402.6c-12.18,-9.13 -19.98,5.64 -52.87,-25.06l-2.61 3.84c9.17,9.89 12.27,18.44 24.88,28.9 10.08,-4.69 15.03,-8.85 30.6,-7.68z"/>
   <path class="fil6" d="M294.44 464.28c-0.44,0.33 -1,0.38 -1.25,1.09 -0.24,0.69 -0.92,0.81 -1.26,1.01 -0.01,0 0.82,3.91 -14.32,1.84 -20.11,-2.75 -26.93,-10.29 -39.06,-22.04 4.58,21.34 28.86,31.22 55.28,33.06l0.61 -14.96z"/>
   <path class="fil2" d="M76.66 196.09l0.72 0.81 3.62 -2.73c3.58,-9.36 2.64,-16.19 11.19,-22.36 8.22,0.9 9.34,3.79 12.26,9.66l7.63 -0.14c-3.4,-10.5 -9.79,-21.51 -19.89,-22.89 -8.19,6.23 -16.27,23.97 -15.53,37.65z"/>
   <path class="fil7" d="M233.85 485.84l46.4 -0.5c-8.47,-3.66 -15.95,-4.4 -25.2,-9.36 -9.92,-5.32 -10.93,-7.14 -18.29,-14.67l-2.91 24.53z"/>
   <path class="fil11" d="M341.12 108.34l2.55 0.55c12.75,3.82 1.64,6.64 18.54,6.5 9.02,-0.08 10.71,1.75 18.21,6.56 14.22,9.11 14.02,12.24 23.9,21.13l2.24 1.72c0.25,0.2 0.81,0.55 1.24,0.79 -8.59,-19.24 -33.89,-39.29 -62.63,-43.18 2.83,3.18 1.84,3.77 1.87,4.52l-5.92 1.41z"/>
   <path class="fil14" d="M237.46 392.87c-0.57,7.12 -0.61,1.17 2.08,3.65 2.44,-11.91 9.27,-26.56 14.48,-35.16 11.28,-18.59 13.72,-16.99 19.07,-24.09 2.64,-3.49 1.27,-1.42 2.7,-4.65l-5.24 -3.64c-13.08,8.76 -28.56,41.17 -33.09,63.89z"/>
   <path class="fil15" d="M342.77 352.57c6.48,10.89 19.24,3.18 24.12,-0.44 -1.3,-9.76 -1.03,-5.77 -5.82,-12.15 -11.47,-1.78 -19.26,1.62 -18.3,12.59z"/>
   <path class="fil8" d="M153.43 431.36c-11.53,0.77 -12.83,-7.17 -20.34,-12.58 3.51,13.73 4.57,15.87 5.08,31.82l7.9 4.52c1.82,-9.63 4.47,-16.82 7.36,-23.76z"/>
   <path class="fil15" d="M122.33 387.92c7.07,4.7 12.01,6.86 21.88,0.66 2.83,-10.78 -6.59,-14.19 -16.82,-12.72 -4.3,6.6 -3.93,2.98 -5.06,12.06z"/>
   <path class="fil11" d="M220.46 178.83c3.59,-25.78 7.06,-43.1 30.37,-49.81 3.99,-2.62 1.65,-0.34 4.47,-4.32 -34,2.14 -31.82,28.61 -40.25,56.98l5.41 -2.85z"/>
   <path class="fil6" d="M424.8 442.02l3.72 9.49c6.88,-3.78 9.48,-9.45 10.98,-19.79 0.99,-6.85 2.48,-23.66 -2.73,-27.45 -3.02,14.59 3.29,28.09 -11.97,37.75z"/>
   <path class="fil13" d="M139 339.57c5.92,-2.12 8.9,-5.8 10.86,-12.21 -15.05,-16.73 -31.51,4.66 -10.86,12.21z"/>
   <path class="fil16" d="M141.48 369.53c4.34,2.28 5.44,3.65 8.32,6.51 20.96,0.39 30.77,-5.08 44.38,-13.66 -39.87,10.35 -28.13,3.57 -52.7,7.15z"/>
   <path class="fil9" d="M130.15 367.45c-24.77,-4.86 -48.31,-15.61 -49.59,-15.8 2.38,1.5 5.03,5 8.67,7.49 4.34,2.97 7.45,4.71 12.68,7.18 14.58,6.9 15.41,8.23 28.24,1.13z"/>
   <path class="fil14" d="M396.04 434.81c1.39,-16.38 4.45,-46.48 20.49,-54.88 8.6,-4.5 12.88,-2.46 19.1,-3.97 0.43,-0.1 1.02,-0.42 1.36,-0.52 0.32,-0.1 0.85,-0.4 1.27,-0.61 -18.22,-3.14 -29.88,3.64 -36.3,15.75 -5.68,10.71 -10.17,30.94 -5.92,44.23z"/>
   <path class="fil1" d="M165.31 272.24c5.78,1.95 15.35,2.03 24.09,4.76 -2.57,-6.55 -4.36,-5.72 -12.15,-9.46l15.92 -6.78c-10.25,-5.32 -27.88,1.94 -27.86,11.48z"/>
   <path class="fil8" d="M109.42 453.97l-4.4 -13.12c-0.71,-16.73 4.84,-18.43 -11.09,-24.31l6.03 8.03c-0.73,12.94 -2.67,25.64 4.54,35.6l1.25 -2.43c1.91,-2.31 1.59,-1.82 3.67,-3.77z"/>
   <path class="fil5" d="M95.42 413.57c0.47,1.15 16.27,-4.75 25.02,6.17 7.23,9.02 6.59,17.99 11.35,26.07 -1.01,-44.15 -30.03,-41.26 -36.37,-32.24z"/>
   <path class="fil14" d="M351.8 468.73c-5.75,-22.79 -27.79,-26.8 -54.1,-25.71 24.19,6.14 46.31,6.43 52.39,28.6 2.03,-1.83 0.79,0.24 1.71,-2.89z"/>
   <path class="fil14" d="M428.66 305.71c26.39,11.03 25.71,19.05 35.1,21.73 -6.81,-12.35 -17.88,-21.39 -30.69,-28.12l-4.41 6.39z"/>
   <path class="fil17" d="M213.31 212.04l11.79 14.53 3.49 -26.01c-9.6,1.87 -3.6,-0.81 -9.53,5.35 -3.01,3.12 -3.3,2.55 -5.75,6.13z"/>
   <path class="fil8" d="M186.94 460.51c5,0 2.66,8.42 2.27,12.58l16.17 3.64c-0.25,-2.67 -0.43,-5.29 -0.88,-7.85 -0.18,-1.07 -0.63,-3.6 -0.96,-4.48 -1.35,-3.52 -0.54,-1.54 -2.24,-3.52 0.21,6.94 -0.17,3.16 -1.1,5.52 -9.47,-0.58 -6.72,-1.49 -9.01,-11.22 -5.55,3.36 -5.26,-4.95 -4.25,5.33z"/>
   <path class="fil5" d="M159 437l0.53 -0.17c15.88,-6.79 19.25,-5.42 32.38,1.48l1.1 0.25c-4.9,-12.41 -24.22,-15.12 -31.8,-6.16 -2.57,3.03 -1.12,1.23 -2.21,4.6z"/>
   <path class="fil6" d="M323.01 489.04c-10.99,-2.36 -13.53,-7.19 -21.76,-12.26 3.52,10.58 9.02,17.03 21.26,19.77l0.5 -7.51z"/>
   <path class="fil17" d="M99.75 184.42l-7.73 4.06 -0.8 -2.7c-2.22,2.16 -1.36,-1.4 -3.41,5.95 -0.86,3.04 -0.92,5.4 -1.28,8.7l15.73 -8.49 -2.51 -7.52z"/>
   <path class="fil6" d="M408.84 447.54l2.79 8.59c13.89,1.91 11.02,-1.16 10.11,-10.35l-12.9 1.76z"/>
   <path class="fil18" d="M342.77 352.57c1.29,5.54 3.16,6.92 6.93,10.26 11.06,1.36 14.73,-0.86 17.19,-10.7 -4.88,3.62 -17.64,11.33 -24.12,0.44z"/>
   <path class="fil18" d="M144.21 388.58c-9.87,6.2 -14.81,4.04 -21.88,-0.66 4.57,12.33 10.39,11.15 20.64,6.59l1.24 -5.93z"/>
   <path class="fil8" d="M119.58 458.78l-5.65 1.2c-1.06,-1.25 -1.61,-2.33 -1.79,-2.58 -0.24,-0.33 -1.56,-1.4 -1.73,-2.21 -0.14,-0.72 -0.65,-0.82 -0.99,-1.22 -0.59,6.63 -3.41,12.72 1.55,14.91 4.6,2.03 6.65,-5.89 8.61,-10.1z"/>
   <path class="fil11" d="M436.46 186.91c-4.27,-9.7 -15.62,-23.94 -21.77,-29.46 1.61,8.78 18.63,27.13 21.77,29.46z"/>
   <path class="fil8" d="M216.14 198.58c-5.53,-2.84 -1.9,0.74 -3.45,-4.71 -4.53,3.32 -7.02,5.31 -9.67,11.73l4.54 2.26 8.58 -9.28z"/>
   <path class="fil8" d="M81 194.17l-3.62 2.73 -0.72 -0.81 -3.01 6.7c-0.76,3.11 -0.88,5.65 -1.03,8.96 7.82,-5.83 7.03,-4.77 8.38,-17.58z"/>
   <polygon class="fil6" points="339.54,489.63 327.68,490.22 329.85,497.51 338.92,496.29 "/>
   <path class="fil10" d="M364.01 197.46c3.01,-0.56 5.43,1.55 4.74,-4.65 -0.46,-4.12 -2.1,-4.49 -5.72,-5.01 -2.34,6.19 -3.17,3.86 0.98,9.66z"/>
   <path class="fil8" d="M112.08 181.33l-7.63 0.14c3.13,7.65 0.61,7.99 10.09,7.14l-2.46 -7.28z"/>
   <path class="fil10" d="M297.41 207.06c3.85,-6.1 3.51,-4.45 0,-9.75 -3.43,1.5 -4.08,-0.59 -4.87,4.55 -0.92,5.97 3.31,4.77 4.87,5.2z"/>
   <path class="fil8" d="M171.33 475.35l-9.42 0.23c1.74,6 2.13,7.37 8.36,7.26l1.06 -7.49z"/>
   <path class="fil8" d="M120.36 459.92l0.09 7.24c7.18,-4.17 6.86,-4.2 8.91,-11.98l-9 4.74z"/>
   <path class="fil13" d="M91.22 185.78l0.8 2.7 7.73 -4.06c-4.63,-6.46 0.11,-5.09 -7.11,-6.17l-1.42 7.53z"/>
   <path class="fil10" d="M115.94 262.47c4.61,-9.81 0.83,-7.69 -0.34,-9.52 -7.39,4.41 -7.53,7.5 0.34,9.52z"/>
   <path class="fil6" d="M343.77 486.38l2.24 4.6c5.58,-4.27 4.91,-4.21 6.63,-12.4l-8.87 7.8z"/>
  </g>
 </g>
</svg>
